PathFileType	4	(X/Y/Z)	/Users/itak/Documents/Research/Walk-IL/dataset/trc/00191_00008.trc
DataRate	CameraRate	NumFrames	NumMarkers	Units	OrigDataRate	OrigDataStartFrame	OrigNumFrames
100.000000	100.000000	4	53	mm	100.000000	695	795
Frame#	Time	RPSI			LPSI			L3			STRN			T10			C7			CLAV			RBAK			LBAK			LSHO			LUPA			LAEL			LAOL			LWTS			LWPS			LFRA			LIFD			LHPS			LHTS			RSHO			RUPA			RAEL			RAOL			RWTS			RWPS			RFRA			RIFD			RHTS			RHPS			RBHD			LFHD			RFHD			LBHD			LHIP			RHIP			RASI			LASI			LKNE			LTHI			LANK			LTIP			LTOE			LMT1			LMT5			LHEE			RKNE			RTHI			RANK			RTIP			RTOE			RMT1			RMT5			RHEE			
		X1	Y1	Z1	X2	Y2	Z2	X3	Y3	Z3	X4	Y4	Z4	X5	Y5	Z5	X6	Y6	Z6	X7	Y7	Z7	X8	Y8	Z8	X9	Y9	Z9	X10	Y10	Z10	X11	Y11	Z11	X12	Y12	Z12	X13	Y13	Z13	X14	Y14	Z14	X15	Y15	Z15	X16	Y16	Z16	X17	Y17	Z17	X18	Y18	Z18	X19	Y19	Z19	X20	Y20	Z20	X21	Y21	Z21	X22	Y22	Z22	X23	Y23	Z23	X24	Y24	Z24	X25	Y25	Z25	X26	Y26	Z26	X27	Y27	Z27	X28	Y28	Z28	X29	Y29	Z29	X30	Y30	Z30	X31	Y31	Z31	X32	Y32	Z32	X33	Y33	Z33	X34	Y34	Z34	X35	Y35	Z35	X36	Y36	Z36	X37	Y37	Z37	X38	Y38	Z38	X39	Y39	Z39	X40	Y40	Z40	X41	Y41	Z41	X42	Y42	Z42	X43	Y43	Z43	X44	Y44	Z44	X45	Y45	Z45	X46	Y46	Z46	X47	Y47	Z47	X48	Y48	Z48	X49	Y49	Z49	X50	Y50	Z50	X51	Y51	Z51	X52	Y52	Z52	X53	Y53	Z53	

696	6.95	749.2454833984375	1063.7119140625	986.2182006835938	765.7886352539062	1061.800537109375	1109.200073242188	756.5546264648438	1099.65869140625	1046.381469726562	504.20703125	1315.981323242188	1105.0419921875	797.5017700195312	1256.908813476562	1052.348754882812	739.9923706054688	1525.81591796875	1085.084228515625	538.0556640625	1426.478881835938	1113.164672851562	784.3720092773438	1354.994506835938	960.2449340820312	765.0929565429688	1497.723510742188	1180.767822265625	703.486572265625	1485.699462890625	1269.634399414062	746.2406005859375	1354.540771484375	1336.632202148438	718.0243530273438	1142.060180664062	1372.459594726562	743.7923583984375	1114.687255859375	1291.180297851562	551.6823120117188	945.5823974609375	1390.880737304688	633.2943115234375	903.250732421875	1407.6259765625	684.9790649414062	1037.0859375	1398.003784179688	483.4316101074219	775.4284057617188	1392.64697265625	593.6795043945312	843.3836059570312	1417.2392578125	527.691162109375	874.6624145507812	1422.9150390625	646.2297973632812	1513.377197265625	917.825927734375	653.9441528320312	1449.532470703125	844.5009765625	655.6044311523438	1162.197875976562	778.3812255859375	674.3294067382812	1151.656127929688	874.2413940429688	495.5511474609375	951.5845947265625	818.1402587890625	559.8970336914062	925.7364501953125	760.9041748046875	620.9027709960938	1091.661376953125	763.5482177734375	462.616943359375	765.2949829101562	845.9678344726562	457.1556396484375	862.0614624023438	814.7125854492188	521.674072265625	846.5372924804688	769.0238037109375	636.3843383789062	1700.708374023438	1034.6650390625	494.6189880371094	1701.189697265625	1200.873657226562	465.1166381835938	1702.130615234375	1074.712158203125	670.3990478515625	1708.6162109375	1167.483032226562	678.73681640625	1000.060974121094	1240.756591796875	576.02880859375	1024.220825195312	882.2700805664062	506.1510620117188	1053.924682617188	951.38232421875	546.6321411132812	1038.776611328125	1206.08544921875	640.559326171875	504.8772277832031	1198.320068359375	646.7781982421875	646.4121704101562	1229.554077148438	679.679443359375	37.7354621887207	1175.4716796875	658.7323608398438	277.9427185058594	1199.719604492188	460.8054504394531	49.03669357299805	1183.825805664062	501.4074096679688	52.21147537231445	1129.456909179688	580.5909423828125	33.64188003540039	1232.098999023438	718.568359375	39.37211227416992	1098.700317382812	521.3439331054688	520.8560791015625	908.6504516601562	507.9860229492188	794.6356201171875	880.5816040039062	639.1210327148438	40.1107292175293	888.0062255859375	519.27197265625	395.9588928222656	922.0233764648438	419.9977416992188	44.62546920776367	939.5601806640625	479.6658935546875	42.9425163269043	980.3682250976562	522.842529296875	39.92156219482422	863.1774291992188	695.8785400390625	36.54433822631836	950.1541137695312	
697	6.96	747.9901733398438	1063.926635742188	986.6390380859375	764.5460815429688	1061.897827148438	1109.613647460938	755.268798828125	1099.772216796875	1046.75732421875	502.8851928710938	1315.954223632812	1105.422973632812	796.198486328125	1256.929809570312	1052.5517578125	738.7589721679688	1525.867431640625	1085.294067382812	536.8943481445312	1426.532470703125	1113.654296875	782.9435424804688	1354.975708007812	960.4090576171875	763.9198608398438	1497.76025390625	1180.964599609375	702.418212890625	1485.650634765625	1269.955932617188	745.3505249023438	1354.211303710938	1336.566284179688	717.4772338867188	1141.297729492188	1370.99560546875	743.4503784179688	1114.760986328125	1289.543579101562	553.3734130859375	942.710205078125	1387.578857421875	635.47607421875	901.33349609375	1404.242309570312	685.4074096679688	1035.814575195312	1395.640625	487.4800720214844	771.498291015625	1387.685913085938	596.5517578125	840.7026977539062	1413.11083984375	530.2053833007812	871.1134033203125	1418.860107421875	644.7880249023438	1513.381469726562	918.123779296875	652.3668823242188	1449.575317382812	844.7252197265625	653.7763061523438	1162.433471679688	778.3145141601562	672.56591796875	1151.595336914062	874.1426391601562	494.6265258789062	950.965576171875	816.7354125976562	559.266845703125	925.7649536132812	759.5624389648438	619.4266357421875	1091.958374023438	763.1450805664062	462.4389953613281	764.2759399414062	843.2003784179688	456.6764831542969	861.2494506835938	812.606201171875	521.4473876953125	846.3566284179688	767.0799560546875	635.22509765625	1700.759155273438	1034.747680664062	493.4572448730469	1701.38037109375	1200.940795898438	463.9525756835938	1702.2333984375	1074.757934570312	669.2111206054688	1708.784912109375	1167.56298828125	677.5211791992188	1000.043273925781	1241.136108398438	574.7926635742188	1024.281005859375	882.7360229492188	504.76904296875	1053.989379882812	951.7086791992188	545.3158569335938	1038.728637695312	1206.413940429688	639.9989013671875	504.8411560058594	1198.354248046875	645.916259765625	646.3525390625	1229.682861328125	679.6764526367188	37.76780700683594	1175.421997070312	658.5388793945312	277.9613952636719	1199.740112304688	460.8205871582031	49.05839538574219	1183.821655273438	501.4240417480469	52.18465042114258	1129.419799804688	580.5823364257812	33.64614105224609	1232.087524414062	718.5757446289062	39.3580207824707	1098.64111328125	523.0222778320312	520.8539428710938	908.7698364257812	508.5218811035156	794.217529296875	880.6704711914062	639.1590576171875	40.24384689331055	888.1493530273438	520.5520629882812	396.0594787597656	922.438720703125	420.0228576660156	44.69214248657227	939.78466796875	479.6494140625	42.72921752929688	980.59521484375	522.8170166015625	40.11854553222656	863.4334716796875	695.9788818359375	36.32249069213867	950.3265991210938	
698	6.97	746.778564453125	1064.183227539062	987.022216796875	763.3399658203125	1062.021118164062	1109.973876953125	754.0250244140625	1099.924438476562	1047.095336914062	501.5793762207031	1315.93505859375	1105.739868164062	794.92138671875	1257.002075195312	1052.72021484375	737.5195922851562	1525.958374023438	1085.468383789062	535.75830078125	1426.621459960938	1114.10546875	781.5336303710938	1355.013427734375	960.542236328125	762.7320556640625	1497.841064453125	1181.127075195312	701.3255615234375	1485.620483398438	1270.233520507812	744.4345703125	1353.923706054688	1336.448120117188	716.9479370117188	1140.576782226562	1369.410400390625	743.13232421875	1114.891723632812	1287.785888671875	555.30126953125	939.7643432617188	1384.1435546875	637.9213256835938	899.42041015625	1400.715942382812	685.9713134765625	1034.596069335938	1393.160766601562	492.02392578125	767.422119140625	1382.505126953125	599.7872924804688	838.0172119140625	1408.845092773438	533.0591430664062	867.4555053710938	1414.638671875	643.3617553710938	1513.434936523438	918.3844604492188	650.8177490234375	1449.677124023438	844.9051513671875	652.0101318359375	1162.717407226562	778.2036743164062	670.8408813476562	1151.598266601562	874.0022583007812	493.7008361816406	950.4464111328125	815.3096923828125	558.6444702148438	925.8482055664062	758.24609375	618.001708984375	1092.298217773438	762.709716796875	462.1791076660156	763.4734497070312	840.533447265625	456.1716613769531	860.553466796875	810.5160522460938	521.2102661132812	846.2456665039062	765.18994140625	634.0502319335938	1700.847534179688	1034.801879882812	492.2763977050781	1701.58544921875	1200.9736328125	462.7738037109375	1702.3671875	1074.763671875	668.0077514648438	1708.973999023438	1167.613891601562	676.3760375976562	1000.038208007812	1241.455200195312	573.6810913085938	1024.387573242188	883.1622314453125	503.4435424804688	1054.082641601562	952.005615234375	544.0565185546875	1038.711669921875	1206.719360351562	639.3543090820312	504.8258666992188	1198.384887695312	645.0315551757812	646.3265991210938	1229.770629882812	679.6715698242188	37.8072509765625	1175.364135742188	658.2869873046875	277.9789733886719	1199.759521484375	460.8331604003906	49.07353210449219	1183.814208984375	501.4329223632812	52.14927673339844	1129.37548828125	580.573486328125	33.653564453125	1232.072875976562	718.5813598632812	39.34280395507812	1098.571655273438	524.7547607421875	520.92236328125	908.796630859375	508.9431457519531	793.9573364257812	880.7553100585938	639.1876220703125	40.33058547973633	888.2393798828125	521.9088134765625	396.2469177246094	922.7548828125	420.1044006347656	44.81007766723633	939.9293823242188	479.6512756347656	42.5660514831543	980.7728881835938	522.8047485351562	40.28426742553711	863.6370239257812	696.0654296875	36.14017105102539	950.4293823242188	
699	6.98	745.6043701171875	1064.47021484375	987.3729248046875	762.162841796875	1062.16015625	1110.288208007812	752.817138671875	1100.104125976562	1047.401733398438	500.313720703125	1315.92529296875	1106.009521484375	793.67041015625	1257.11279296875	1052.858520507812	736.2789306640625	1526.078979492188	1085.608520507812	534.6370239257812	1426.739379882812	1114.501708984375	780.1443481445312	1355.096435546875	960.6502685546875	761.5357055664062	1497.956665039062	1181.256469726562	700.2167358398438	1485.599365234375	1270.471801757812	743.5016479492188	1353.679077148438	1336.281005859375	716.4351196289062	1139.898315429688	1367.712524414062	742.836181640625	1115.06884765625	1285.9150390625	557.444580078125	936.76220703125	1380.57958984375	640.6135864257812	897.5316772460938	1397.073852539062	686.6635131835938	1033.4462890625	1390.584838867188	497.0355224609375	763.2461547851562	1377.12890625	603.3915405273438	835.3855590820312	1404.496948242188	536.236328125	863.7203979492188	1410.271362304688	641.9627075195312	1513.527709960938	918.6079711914062	649.3064575195312	1449.827880859375	845.0421142578125	650.3058471679688	1163.038330078125	778.0474243164062	669.1564331054688	1151.656372070312	873.8194580078125	492.7675170898438	950.0169067382812	813.8850708007812	558.0162353515625	925.9765014648438	756.96240234375	616.6156005859375	1092.669555664062	762.2462158203125	461.8622741699219	762.8522338867188	838.0020751953125	455.6371765136719	859.9653930664062	808.4749145507812	520.9507446289062	846.1942138671875	763.3693237304688	632.85595703125	1700.964599609375	1034.828979492188	491.0709533691406	1701.787963867188	1200.973022460938	461.5788879394531	1702.513916015625	1074.73486328125	666.7896728515625	1709.17626953125	1167.635864257812	675.2781982421875	1000.039916992188	1241.725463867188	572.7037353515625	1024.536010742188	883.5560913085938	502.1759948730469	1054.17724609375	952.2947998046875	542.8551635742188	1038.723754882812	1207.016479492188	638.639404296875	504.8295593261719	1198.425537109375	644.1307373046875	646.3292236328125	1229.8359375	679.6670532226562	37.84825134277344	1175.300537109375	657.9896240234375	277.9949645996094	1199.779907226562	460.8462524414062	49.08424758911133	1183.804809570312	501.4401550292969	52.10859680175781	1129.326416015625	580.566162109375	33.66342544555664	1232.056396484375	718.58837890625	39.32483291625977	1098.492797851562	526.5543212890625	521.0508422851562	908.7183837890625	509.1420288085938	793.8468627929688	880.820556640625	639.210205078125	40.36592483520508	888.2794799804688	523.3583984375	396.51171875	922.9562377929688	420.2389526367188	44.96074295043945	939.9781494140625	479.6682739257812	42.45034408569336	980.9000854492188	522.80517578125	40.41431045532227	863.7837524414062	696.1343994140625	35.98938369750977	950.4711303710938	
